<svg width="220" height="300" viewBox="0 0 220 300" fill="none" xmlns="http://www.w3.org/2000/svg">
<path d="M109.673 274C78.6538 273.092 50.8922 249.596 40.3281 215.537L39.9738 214.326C39.8062 213.757 39.6304 213.162 39.4629 212.559C28.0061 200.928 16 179.646 16 159.243C16 149.514 16.824 142.229 20.7711 138.313C21.776 137.312 22.9873 136.545 24.32 136.064L24.8034 101.471C24.7869 100.338 24.6194 70.7594 46.2529 48.7581C61.0855 33.6732 82.3674 26.0138 109.492 26C136.616 26 157.893 33.6677 172.728 48.7526C194.364 70.7539 194.199 100.338 194.18 101.595L194.658 136.064C195.999 136.542 197.218 137.311 198.229 138.315C202.19 142.235 203 149.517 203 159.232C203 179.643 190.991 200.926 179.529 212.554C179.29 213.415 179.007 214.335 178.727 215.251L178.644 215.526C167.981 250.127 140.912 273.078 109.673 274ZM28.2286 143.619C27.0585 143.619 26.6959 143.977 26.5201 144.15C24.1826 146.459 24.1826 156.081 24.1826 159.243C24.1826 177.76 35.4911 197.243 46.0002 207.506C46.5519 208.046 46.9403 208.731 47.1209 209.482C47.3269 210.341 47.5823 211.194 47.8186 211.987L48.1729 213.206C57.663 243.819 82.3894 264.997 109.673 265.804C137.116 264.978 161.211 244.304 170.816 213.113L170.899 212.837C171.258 211.665 171.624 210.487 171.871 209.469C172.051 208.719 172.439 208.035 172.992 207.498C183.501 197.235 194.809 177.755 194.809 159.235C194.809 156.076 194.809 146.457 192.472 144.145C192.29 143.963 191.922 143.536 190.678 143.611C188.522 143.611 186.558 141.833 186.533 139.568L186.003 101.587C186.003 101.204 186.08 73.9437 166.839 54.4415C153.597 41.0216 134.303 34.2099 109.508 34.1989C84.6582 34.1989 65.3402 41.0492 52.1008 54.5158C32.8404 74.0978 32.9997 101.199 33.0052 101.471L32.4724 139.576C32.4707 140.116 32.3614 140.65 32.151 141.147C31.9406 141.645 31.6332 142.095 31.2469 142.471C30.8606 142.848 30.4031 143.143 29.9013 143.34C29.3995 143.537 28.8635 143.632 28.3247 143.619H28.2286Z" fill="white"/>
<path fill-rule="evenodd" clip-rule="evenodd" d="M220 0H0V300H220V0ZM110.673 274C79.6538 273.092 51.8922 249.596 41.3281 215.537L40.9738 214.326L40.9322 214.185C40.7773 213.659 40.6166 213.112 40.4629 212.559C29.0061 200.928 17 179.646 17 159.243C17 149.514 17.824 142.229 21.7711 138.313C22.776 137.312 23.9873 136.545 25.32 136.064L25.8034 101.471C25.7869 100.338 25.6194 70.7594 47.2529 48.7581C62.0855 33.6732 83.3674 26.0138 110.492 26C137.616 26 158.893 33.6677 173.728 48.7526C195.364 70.7539 195.199 100.338 195.18 101.595L195.658 136.064C196.999 136.542 198.218 137.311 199.229 138.315C203.19 142.235 204 149.517 204 159.232C204 179.643 191.991 200.926 180.529 212.554C180.306 213.356 180.046 214.209 179.785 215.062L179.784 215.065L179.727 215.251L179.644 215.526C168.981 250.127 141.912 273.078 110.673 274Z" fill="black" fill-opacity="0.6"/>
<path d="M88.4167 150C88.4167 152.936 86.8612 155.664 84.2087 157.691C81.5554 159.718 77.8463 161 73.7083 161C69.5704 161 65.8613 159.718 63.2079 157.691C60.5555 155.664 59 152.936 59 150C59 147.064 60.5555 144.336 63.2079 142.309C65.8613 140.282 69.5704 139 73.7083 139C77.8463 139 81.5554 140.282 84.2087 142.309C86.8612 144.336 88.4167 147.064 88.4167 150Z" fill="#5F5A53" fill-opacity="0.5" stroke="white" stroke-width="2"/>
<path d="M161.001 150C161.001 152.936 159.445 155.664 156.793 157.691C154.139 159.718 150.43 161 146.292 161C142.154 161 138.445 159.718 135.792 157.691C133.139 155.664 131.584 152.936 131.584 150C131.584 147.064 133.139 144.336 135.792 142.309C138.445 140.282 142.154 139 146.292 139C150.43 139 154.139 140.282 156.793 142.309C159.445 144.336 161.001 147.064 161.001 150Z" fill="#5F5A53" fill-opacity="0.5" stroke="white" stroke-width="2"/>
</svg>
