<svg width="26" height="22" viewBox="0 0 26 22" fill="none" xmlns="http://www.w3.org/2000/svg">
<path d="M25.2096 7.82965C25.1769 9.91507 24.4235 11.793 22.8949 13.3325C20.6348 15.6145 18.3419 17.8855 16.0709 20.1675C14.0947 22.1437 11.3978 22.1546 9.4325 20.1893C7.13963 17.9074 4.81401 15.6472 2.57573 13.3107C0.261028 10.9086 -0.361322 8.02619 0.796031 4.90352C2.29185 0.830946 7.09596 -0.784981 11.1139 1.34411C11.5288 1.56248 11.9547 1.80269 12.2931 2.11932C12.6425 2.44687 12.8609 2.35953 13.1994 2.09748C16.2565 -0.282733 20.5475 -0.118957 23.1242 2.46871C24.5654 3.92086 25.1987 5.71148 25.2096 7.82965ZM23.4627 8.25547C23.4518 4.97995 21.7703 2.78534 19.2591 2.31585C17.0645 1.90095 15.1647 2.54514 13.5706 4.10647C12.9373 4.72882 12.5224 4.73974 11.911 4.11739C11.2231 3.41861 10.4261 2.89453 9.49801 2.56698C6.24432 1.38779 2.97972 2.99279 2.19359 6.21373C1.64767 8.44109 2.20451 10.4501 3.80952 12.0878C6.09147 14.4135 8.40617 16.6954 10.71 18.9992C11.9219 20.2002 13.5269 20.2111 14.7389 19.0101C17.0536 16.7173 19.3574 14.4135 21.6502 12.1097C22.8622 10.8868 23.4518 9.40191 23.4627 8.25547Z" fill="#8D8D8D"/>
<path d="M22.3375 7.66594C22.3484 8.29921 22.0209 8.70319 21.4859 8.71411C20.9727 8.72503 20.6233 8.36472 20.5906 7.76421C20.5251 6.60685 19.8809 5.85348 18.9091 5.34032C18.7454 5.25297 18.5707 5.19838 18.4178 5.11103C18.0247 4.87082 17.8719 4.43409 18.0575 4.03011C18.265 3.59337 18.6143 3.40776 19.0838 3.51694C20.798 3.92092 22.3157 5.8644 22.3375 7.66594Z" fill="#8D8D8D"/>
</svg>
