<svg width="34" height="34" viewBox="0 0 34 34" fill="none" xmlns="http://www.w3.org/2000/svg">
<circle cx="16.8182" cy="17.1937" r="16.0819" stroke="#8D8D8D"/>
<path d="M19.5183 10.6025C20.1755 10.6126 20.7467 10.8401 21.2016 11.3254C21.3583 11.4922 21.515 11.654 21.6667 11.8208C22.4654 12.7054 22.4755 14.0905 21.6364 14.9448C19.7559 16.8505 17.8552 18.736 15.9596 20.6266C15.7473 20.8389 15.4794 20.9602 15.1811 21.0158C14.438 21.1624 13.7 21.3141 12.9569 21.4607C12.0015 21.6477 11.2079 20.8591 11.4 19.9037C11.5466 19.1455 11.7083 18.3872 11.8701 17.634C11.9308 17.351 12.0622 17.0982 12.2745 16.891C14.1499 15.0156 16.0202 13.1351 17.8957 11.2597C18.3405 10.8148 18.8915 10.6126 19.5183 10.6025ZM19.488 11.9118C19.1948 11.9067 18.9471 12.0078 18.7398 12.2151C16.9099 14.05 15.075 15.8901 13.24 17.725C13.149 17.816 13.1086 17.9121 13.0884 18.0334C12.962 18.6855 12.8407 19.3376 12.7042 19.9897C12.6688 20.1666 12.6738 20.2273 12.8862 20.1919C13.5484 20.0706 14.2106 19.9644 14.8778 19.8582C14.9991 19.838 15.0952 19.7875 15.1811 19.6965C17.011 17.8565 18.8409 16.0164 20.6708 14.1764C20.8832 13.9641 21.0146 13.7164 21.0146 13.4131C21.0045 12.8015 20.0996 11.9118 19.488 11.9118Z" fill="#1A1A1A" stroke="white" stroke-width="0.25"/>
<path d="M16.7829 22.3049C18.3398 22.3049 19.9018 22.3049 21.4588 22.3049C21.8632 22.3049 22.1311 22.5071 22.1816 22.8306C22.2373 23.1743 22.0148 23.4675 21.6509 23.5332C21.575 23.5484 21.4992 23.5433 21.4234 23.5433C18.3146 23.5433 15.2057 23.5433 12.0969 23.5433C11.5965 23.5433 11.3083 23.1996 11.4094 22.7497C11.46 22.5222 11.6015 22.3756 11.829 22.3301C11.9453 22.3049 12.0615 22.2998 12.1778 22.2998C13.7145 22.2998 15.2512 22.3049 16.7829 22.3049Z" fill="#1A1A1A" stroke="white" stroke-width="0.25"/>
</svg>
