<svg width="35" height="34" viewBox="0 0 35 34" fill="none" xmlns="http://www.w3.org/2000/svg">
<circle cx="17.5272" cy="17.1937" r="16.0819" stroke="#8D8D8D"/>
<path d="M11.7676 16.3457C11.7676 13.1611 14.0787 10.6256 16.9114 10.3648C20.005 10.0797 22.7407 12.1785 23.2078 15.1932C23.499 17.0675 22.9773 18.7235 21.661 20.0944C20.4418 21.3622 19.1801 22.5875 17.9366 23.831C17.6454 24.1222 17.4028 24.1222 17.1055 23.8249C15.8681 22.5875 14.6246 21.3622 13.3993 20.1126C12.3135 18.9965 11.7918 17.6377 11.7676 16.3457ZM17.8274 11.3171C15.6133 11.3232 13.8846 12.4332 13.1506 14.1984C12.3681 16.0849 12.6593 17.844 14.0301 19.3483C15.0977 20.519 16.2624 21.6048 17.3785 22.727C17.4816 22.8362 17.5484 22.8544 17.6697 22.7391C18.804 21.5927 19.999 20.4948 21.0787 19.2877C22.4314 17.7833 22.7043 16.006 21.8855 14.1559C21.0544 12.2998 19.5319 11.4081 17.8274 11.3171Z" fill="#1A1A1A"/>
<path d="M17.5302 13.3916C18.8768 13.3916 19.9565 14.4774 19.9505 15.824C19.9505 17.1464 18.8586 18.2382 17.5363 18.2443C16.2018 18.2504 15.0978 17.1524 15.0978 15.8179C15.0978 14.4713 16.1836 13.3916 17.5302 13.3916ZM17.5484 14.3621C16.7416 14.3561 16.0926 14.9809 16.0744 15.7755C16.0562 16.5822 16.6992 17.2495 17.5059 17.2677C18.2884 17.2859 18.9617 16.6368 18.9799 15.8483C18.9981 15.0355 18.3612 14.3743 17.5484 14.3621Z" fill="#1A1A1A"/>
</svg>
