<svg width="21" height="25" viewBox="0 0 21 25" fill="none" xmlns="http://www.w3.org/2000/svg">
<path d="M10.0634 24.8523C8.16249 24.8523 6.27105 24.8523 4.37019 24.8523C3.81498 24.8523 3.26919 24.8052 2.75163 24.6264C1.1519 24.0806 0.20147 22.942 0.0885478 21.2764C-0.0620153 19.065 0.19206 16.8912 1.25541 14.8869C2.05528 13.3718 3.30683 12.5249 5.04772 12.412C5.48059 12.3838 5.83818 12.5155 6.19576 12.7413C6.85448 13.1554 7.49437 13.6071 8.23777 13.8894C9.88456 14.5105 11.4372 14.2658 12.9335 13.4283C13.1875 13.2777 13.451 13.1272 13.6769 12.939C14.4391 12.3085 15.286 12.3367 16.1612 12.5814C17.4315 12.939 18.3349 13.7482 18.9278 14.8963C20.0193 16.9948 20.3016 19.2532 20.057 21.5681C19.85 23.4878 18.1938 24.7958 16.1329 24.8617C16.0671 24.8617 16.0106 24.8617 15.9447 24.8617C13.978 24.8523 12.0207 24.8523 10.0634 24.8523ZM10.0539 23.4407C12.0395 23.4407 14.0345 23.4596 16.02 23.4313C17.6856 23.4125 18.7019 22.4056 18.7113 20.7588C18.7207 19.6108 18.636 18.4722 18.3631 17.3523C18.1185 16.3737 17.7609 15.4421 17.0457 14.6893C16.1894 13.7859 15.1637 13.6541 14.1286 14.3223C13.9215 14.454 13.7145 14.6046 13.4887 14.7175C12.0301 15.5174 10.4774 15.8467 8.82121 15.5268C7.64493 15.3009 6.6004 14.7645 5.64056 14.0682C5.3018 13.8235 4.96303 13.7953 4.57721 13.88C3.56091 14.0964 2.89279 14.7363 2.43169 15.6303C1.54713 17.3712 1.34951 19.2532 1.47185 21.1635C1.54713 22.3868 2.33758 23.1302 3.5515 23.3749C3.84321 23.4313 4.14434 23.4407 4.43606 23.4407C6.32751 23.4407 8.19072 23.4407 10.0539 23.4407Z" fill="#8D8D8D" stroke="#8D8D8D" stroke-width="0.1"/>
<path d="M4.13536 6.58624C4.11654 3.37737 6.68552 0.780154 9.90381 0.761334C13.1127 0.742513 15.7099 3.30209 15.7475 6.51096C15.7758 9.72925 13.188 12.3453 9.95086 12.3547C6.72316 12.3641 4.16359 9.81394 4.13536 6.58624ZM9.93204 10.9432C12.3787 10.9432 14.3266 9.00466 14.3266 6.56742C14.3266 4.13018 12.3693 2.18227 9.94145 2.17286C7.4948 2.17286 5.5563 4.11136 5.5563 6.55801C5.54689 9.00466 7.47598 10.9432 9.93204 10.9432Z" fill="#8D8D8D" stroke="#8D8D8D" stroke-width="0.1"/>
</svg>
