<svg width="25" height="25" viewBox="0 0 25 25" fill="none" xmlns="http://www.w3.org/2000/svg">
<path d="M12.7369 0.98877C15.765 0.98877 18.7932 0.98877 21.8213 0.98877C23.5823 0.98877 24.6445 2.04163 24.6445 3.78398C24.6445 8.88059 24.6445 13.9679 24.6445 19.0645C24.6445 20.7789 23.573 21.8504 21.8493 21.8504C20.0324 21.8504 18.2155 21.8597 16.3986 21.8411C16.1098 21.8411 15.9048 21.9249 15.7091 22.1299C14.9358 22.9219 14.1531 23.6952 13.3705 24.4686C12.8766 24.9624 12.5598 24.9624 12.066 24.4686C11.302 23.7139 10.538 22.9592 9.79258 22.1951C9.55033 21.9436 9.29876 21.8318 8.9447 21.8318C7.1744 21.8504 5.4041 21.8411 3.63379 21.8411C1.85417 21.8504 0.791992 20.8068 0.791992 19.0272C0.791992 13.9493 0.791992 8.87128 0.791992 3.7933C0.791992 2.04163 1.85417 0.98877 3.60584 0.98877C6.65263 0.98877 9.69941 0.98877 12.7369 0.98877ZM12.7648 2.38638C9.72736 2.38638 6.68058 2.38638 3.64311 2.38638C2.6182 2.38638 2.1896 2.80566 2.1896 3.82125C2.1896 8.89923 2.1896 13.9679 2.1896 19.0459C2.1896 20.0242 2.62752 20.4621 3.61516 20.4621C5.49727 20.4621 7.37006 20.4807 9.25218 20.4528C9.82054 20.4435 10.2212 20.6112 10.5939 21.0211C11.1902 21.6734 11.8424 22.2697 12.4574 22.9126C12.653 23.1176 12.7741 23.1269 12.9791 22.9219C13.6593 22.2231 14.3674 21.5429 15.0476 20.8441C15.3085 20.5832 15.588 20.4714 15.9514 20.4714C17.908 20.4807 19.8647 20.4807 21.8213 20.4807C22.809 20.4807 23.2562 20.0428 23.2562 19.0738C23.2562 13.9865 23.2562 8.88991 23.2562 3.80262C23.2562 2.85225 22.809 2.41433 21.8586 2.41433C18.8211 2.38638 15.793 2.38638 12.7648 2.38638Z" fill="#8D8D8D" stroke="#8D8D8D" stroke-width="0.15"/>
<path d="M8.37592 16.5584C8.56226 15.4589 8.74861 14.3408 8.95359 13.2321C9.0095 12.9525 8.95359 12.7755 8.74861 12.5798C7.97527 11.8438 7.21124 11.0891 6.44722 10.3437C6.21428 10.12 6.03725 9.86848 6.15838 9.52374C6.27951 9.16036 6.55903 9.05787 6.91309 9.00196C7.98459 8.85289 9.05609 8.68517 10.1369 8.54541C10.3978 8.50814 10.5003 8.36838 10.6028 8.1634C11.0593 7.21303 11.5345 6.27197 12.0004 5.3216C12.1495 5.01412 12.3358 4.74392 12.7085 4.7346C13.1091 4.72528 13.3048 5.00481 13.4632 5.3216C13.9198 6.27197 14.4043 7.21303 14.8515 8.1634C14.9633 8.39633 15.1031 8.50814 15.364 8.54541C16.4448 8.68517 17.5163 8.85289 18.5878 9.00196C18.9232 9.04855 19.1841 9.17899 19.2866 9.52374C19.3891 9.84984 19.24 10.0921 19.0164 10.3064C18.2523 11.0518 17.4883 11.8158 16.715 12.5426C16.482 12.7662 16.4355 12.9712 16.4914 13.2786C16.687 14.3129 16.8454 15.3564 17.0318 16.3906C17.097 16.7261 17.0504 17.0056 16.7616 17.2199C16.4727 17.4342 16.1839 17.3503 15.8857 17.2013C14.9447 16.6981 13.985 16.2136 13.0532 15.7012C12.8017 15.5614 12.6153 15.5707 12.3731 15.7105C11.4041 16.2323 10.4351 16.754 9.44742 17.2478C8.88837 17.5274 8.33865 17.1733 8.37592 16.5584ZM8.48773 10.1853C9.04677 10.7909 9.58718 11.3872 10.1462 11.9742C10.4071 12.2444 10.5096 12.5146 10.4351 12.8966C10.2767 13.6979 10.1555 14.4992 10.0158 15.3751C10.7332 15.0024 11.3947 14.6856 12.0097 14.3129C12.5035 14.0147 12.9321 14.0147 13.4353 14.3129C14.0595 14.6856 14.7211 15.0024 15.4385 15.3751C15.2987 14.5272 15.2056 13.7725 15.0378 13.0364C14.9167 12.5239 15.0751 12.1885 15.4385 11.8438C15.9789 11.322 16.4727 10.7536 16.9852 10.1946C16.3702 10.1107 15.7366 9.97097 15.0844 9.9337C14.3484 9.88711 13.8918 9.57964 13.6309 8.87152C13.398 8.26589 13.0532 7.69753 12.7271 7.02668C12.3265 7.84661 11.9538 8.56405 11.609 9.2908C11.4507 9.63555 11.1991 9.80326 10.8264 9.84984C10.0158 9.95234 9.2238 10.0828 8.48773 10.1853Z" fill="#8D8D8D" stroke="#8D8D8D" stroke-width="0.15"/>
</svg>
