<svg width="34" height="34" viewBox="0 0 34 34" fill="none" xmlns="http://www.w3.org/2000/svg">
<g opacity="0.9">
<path d="M24.4475 33.7256C22.2086 33.6475 20.0738 32.9315 18.0432 31.9292C10.8058 28.3756 5.48183 22.9345 2.08441 15.632C1.34244 14.0569 0.821761 12.4038 0.639523 10.6595C0.431252 8.69395 0.886846 6.96269 2.35776 5.56988C3.07369 4.90601 3.72454 4.17706 4.42746 3.50018C6.00251 1.95116 7.78583 1.92513 9.3739 3.44811C10.6496 4.68472 11.9122 5.93435 13.1488 7.22303C14.6978 8.83713 14.7109 10.4643 13.2009 12.1174C12.6021 12.7683 11.9643 13.3931 11.3134 14.0049C11.0401 14.2522 11.001 14.4474 11.1833 14.7729C11.9643 16.2438 12.9796 17.5325 14.0991 18.743C15.622 20.3832 17.3012 21.8541 19.2798 22.9475C19.7354 23.1948 20.0088 23.2079 20.3862 22.8043C21.0241 22.1014 21.714 21.4245 22.4299 20.7997C23.7446 19.6412 25.3848 19.6412 26.6604 20.8518C28.1053 22.2186 29.5241 23.6374 30.8909 25.0823C32.2056 26.4751 32.2056 28.1673 30.93 29.5862C30.0709 30.5624 29.1467 31.4866 28.2094 32.3848C27.1811 33.3481 25.9054 33.7256 24.4475 33.7256ZM2.50095 9.6572C2.51397 11.2583 2.89146 12.573 3.39912 13.8356C6.01553 20.24 10.3632 25.1604 16.2078 28.7791C18.3816 30.1329 20.6856 31.2523 23.237 31.7079C24.9552 32.0203 26.4521 31.734 27.6107 30.2761C28.1053 29.6512 28.7301 29.1306 29.2898 28.5578C30.149 27.6597 30.162 27.0348 29.3029 26.1497C28.0662 24.9001 26.8296 23.6634 25.58 22.4268C24.799 21.6588 24.1872 21.6588 23.3932 22.4268C22.6121 23.1818 21.8572 23.9628 21.0892 24.7178C20.4643 25.3296 19.9307 25.4077 19.1496 25.0172C18.0953 24.4965 17.093 23.9108 16.1688 23.1818C13.3311 20.9429 10.8448 18.4176 9.25675 15.1113C8.80116 14.1611 8.90529 13.6794 9.64726 12.9635C10.3632 12.2736 11.0791 11.5707 11.782 10.8678C12.6281 10.0087 12.6281 9.4229 11.8081 8.57679C10.5715 7.30113 9.30882 6.03849 8.04617 4.78886C7.29119 4.04689 6.61431 4.04689 5.83329 4.78886C5.11736 5.49178 4.44047 6.22073 3.71152 6.91062C2.85241 7.71768 2.43586 8.69395 2.50095 9.6572Z" fill="#1A1A1A"/>
<path d="M19.0453 0.401367C20.5163 0.648689 21.9481 1.02618 23.2889 1.651C29.0033 4.30645 32.5439 8.69317 33.8066 14.8892C33.9497 15.5661 33.6894 16.0477 33.1427 16.1649C32.5569 16.2951 32.0883 15.9696 31.9451 15.2667C31.4505 12.6633 30.4222 10.3073 28.769 8.23758C26.2958 5.11351 23.1066 3.13493 19.1885 2.35391C19.0193 2.31486 18.8501 2.28883 18.6809 2.22374C18.1992 2.01547 17.991 1.63798 18.1081 1.13032C18.2253 0.635672 18.5767 0.427401 19.0453 0.401367Z" fill="#1A1A1A"/>
<path d="M27.8325 15.4877C27.8065 15.9953 27.5852 16.3468 27.0905 16.4379C26.5829 16.5421 26.1924 16.3208 26.0101 15.8261C25.893 15.5267 25.8669 15.1883 25.7758 14.8889C24.7475 11.4785 22.5216 9.30463 19.0591 8.41948C19.02 8.40646 18.981 8.39344 18.9289 8.38043C18.0698 8.18517 17.7183 7.8207 17.8225 7.22192C17.9396 6.58409 18.4473 6.34978 19.3064 6.50599C23.4458 7.31304 26.9474 10.8146 27.7674 14.967C27.7935 15.1753 27.8065 15.3445 27.8325 15.4877Z" fill="#1A1A1A"/>
</g>
</svg>
