<svg width="34" height="34" viewBox="0 0 34 34" fill="none" xmlns="http://www.w3.org/2000/svg">
<circle cx="16.9979" cy="16.7284" r="16.0819" stroke="#8D8D8D"/>
<path d="M17.0078 10.2471C18.6536 10.2471 20.2994 10.2471 21.9453 10.2471C22.9024 10.2471 23.4797 10.8193 23.4797 11.7663C23.4797 14.5364 23.4797 17.3013 23.4797 20.0714C23.4797 21.0032 22.8973 21.5856 21.9605 21.5856C20.973 21.5856 19.9855 21.5906 18.998 21.5805C18.841 21.5805 18.7296 21.6261 18.6232 21.7375C18.2029 22.1679 17.7775 22.5882 17.3521 23.0086C17.0837 23.277 16.9116 23.277 16.6432 23.0086C16.2279 22.5984 15.8127 22.1882 15.4075 21.7729C15.2759 21.6362 15.1391 21.5754 14.9467 21.5754C13.9845 21.5856 13.0223 21.5805 12.0602 21.5805C11.0929 21.5856 10.5156 21.0184 10.5156 20.0511C10.5156 17.2912 10.5156 14.5313 10.5156 11.7714C10.5156 10.8193 11.0929 10.2471 12.045 10.2471C13.7009 10.2471 15.3569 10.2471 17.0078 10.2471ZM17.023 11.0067C15.3721 11.0067 13.7161 11.0067 12.0652 11.0067C11.5082 11.0067 11.2752 11.2346 11.2752 11.7866C11.2752 14.5465 11.2752 17.3013 11.2752 20.0613C11.2752 20.593 11.5132 20.831 12.05 20.831C13.073 20.831 14.0909 20.8411 15.1138 20.8259C15.4227 20.8209 15.6405 20.912 15.843 21.1349C16.1671 21.4893 16.5216 21.8134 16.8559 22.1629C16.9622 22.2743 17.028 22.2793 17.1394 22.1679C17.5091 21.7881 17.894 21.4184 18.2637 21.0386C18.4055 20.8968 18.5574 20.8361 18.7549 20.8361C19.8184 20.8411 20.8818 20.8411 21.9453 20.8411C22.4821 20.8411 22.7251 20.6031 22.7251 20.0765C22.7251 17.3115 22.7251 14.5414 22.7251 11.7764C22.7251 11.2599 22.4821 11.0219 21.9655 11.0219C20.3146 11.0067 18.6688 11.0067 17.023 11.0067Z" fill="#1A1A1A" stroke="#1A1A1A" stroke-width="0.15"/>
<path d="M14.6389 18.7092C14.7402 18.1116 14.8415 17.5039 14.9529 16.9013C14.9833 16.7494 14.9529 16.6531 14.8415 16.5468C14.4212 16.1467 14.0059 15.7365 13.5907 15.3314C13.4641 15.2099 13.3678 15.0731 13.4337 14.8858C13.4995 14.6883 13.6514 14.6326 13.8439 14.6022C14.4262 14.5212 15.0086 14.43 15.596 14.354C15.7378 14.3338 15.7935 14.2578 15.8492 14.1464C16.0974 13.6299 16.3557 13.1184 16.6089 12.6019C16.6899 12.4348 16.7912 12.2879 16.9937 12.2828C17.2115 12.2778 17.3178 12.4297 17.4039 12.6019C17.6521 13.1184 17.9154 13.6299 18.1585 14.1464C18.2192 14.273 18.2952 14.3338 18.437 14.354C19.0244 14.43 19.6068 14.5212 20.1892 14.6022C20.3715 14.6275 20.5133 14.6984 20.569 14.8858C20.6247 15.063 20.5437 15.1947 20.4221 15.3112C20.0069 15.7163 19.5916 16.1315 19.1713 16.5265C19.0447 16.6481 19.0194 16.7595 19.0498 16.9266C19.1561 17.4887 19.2422 18.0559 19.3435 18.618C19.3789 18.8003 19.3536 18.9522 19.1966 19.0687C19.0396 19.1852 18.8826 19.1396 18.7206 19.0586C18.2091 18.7851 17.6875 18.5218 17.1811 18.2433C17.0444 18.1673 16.9431 18.1724 16.8114 18.2483C16.2848 18.5319 15.7581 18.8155 15.2213 19.0839C14.9175 19.2358 14.6187 19.0434 14.6389 18.7092ZM14.6997 15.2453C15.0035 15.5745 15.2973 15.8986 15.6011 16.2176C15.7429 16.3645 15.7986 16.5113 15.7581 16.719C15.672 17.1545 15.6062 17.59 15.5302 18.066C15.9201 17.8635 16.2797 17.6913 16.6139 17.4887C16.8823 17.3267 17.1153 17.3267 17.3887 17.4887C17.728 17.6913 18.0876 17.8635 18.4775 18.066C18.4015 17.6052 18.3509 17.195 18.2598 16.7949C18.1939 16.5164 18.28 16.3341 18.4775 16.1467C18.7712 15.8631 19.0396 15.5542 19.3181 15.2504C18.9839 15.2048 18.6396 15.1289 18.2851 15.1086C17.885 15.0833 17.6369 14.9162 17.4951 14.5313C17.3685 14.2021 17.1811 13.8932 17.0039 13.5286C16.7861 13.9742 16.5835 14.3642 16.3962 14.7592C16.3101 14.9465 16.1734 15.0377 15.9708 15.063C15.5302 15.1187 15.0998 15.1896 14.6997 15.2453Z" fill="#1A1A1A" stroke="#1A1A1A" stroke-width="0.15"/>
</svg>
