<svg width="23" height="26" viewBox="0 0 23 26" fill="none" xmlns="http://www.w3.org/2000/svg">
<path d="M11.6637 24.9122C9.42839 24.9122 7.20276 24.9122 4.9675 24.9122C2.55881 24.9122 0.920898 23.2647 0.920898 20.8463C0.920898 18.3413 0.920898 15.8363 0.920898 13.3312C0.920898 10.9514 2.56844 9.30388 4.94823 9.29425C5.93097 9.29425 5.91171 9.29425 5.93097 8.2826C5.95024 7.16497 5.84426 6.0377 6.01769 4.92007C6.44162 2.27051 8.94666 0.227936 11.76 0.247206C14.5445 0.266475 17.011 2.31868 17.406 4.96824C17.5987 6.2593 17.4734 7.56962 17.4927 8.86068C17.4927 9.21717 17.5794 9.33279 17.9455 9.31352C18.3598 9.28461 18.7837 9.28461 19.198 9.35206C21.1732 9.66037 22.5028 11.2212 22.5124 13.2349C22.522 14.3429 22.5124 15.4509 22.5124 16.5589C22.5124 17.2526 22.127 17.6958 21.5393 17.6861C20.9516 17.6765 20.5855 17.2429 20.5855 16.5396C20.5855 15.4605 20.5855 14.391 20.5855 13.3119C20.5758 12.0402 19.7858 11.2405 18.5043 11.2405C13.976 11.2308 9.44766 11.2308 4.91933 11.2405C3.66681 11.2405 2.86712 12.0402 2.86712 13.2927C2.85749 15.8459 2.85749 18.3991 2.86712 20.9523C2.86712 22.1759 3.66681 22.9852 4.88079 22.9949C9.43803 23.0045 14.0049 23.0045 18.5622 22.9949C19.7183 22.9949 20.4698 22.2819 20.5855 21.1065C20.6433 20.4802 21.0479 20.0852 21.5971 20.1141C22.1463 20.143 22.5124 20.5862 22.5124 21.2028C22.4931 23.2068 20.7781 24.8833 18.7067 24.9218C18.6778 24.9218 18.6392 24.9218 18.6103 24.9218C16.2883 24.9122 13.976 24.9122 11.6637 24.9122ZM11.7022 9.30388C12.8776 9.30388 14.0434 9.29425 15.2189 9.31352C15.479 9.31352 15.585 9.25571 15.585 8.9763C15.5657 7.89721 15.6043 6.82775 15.5657 5.74865C15.4983 3.75426 13.7544 2.17416 11.6926 2.18379C9.63072 2.19343 7.92537 3.81207 7.8772 5.8161C7.85793 6.85665 7.88683 7.89721 7.86756 8.9474C7.85793 9.24607 7.95428 9.32315 8.24332 9.32315C9.38986 9.29425 10.546 9.30388 11.7022 9.30388Z" fill="#8D8D8D" stroke="white" stroke-width="0.25"/>
<path d="M7.27998 16.9153C7.27998 17.4548 6.82715 17.8884 6.2876 17.8691C5.76732 17.8498 5.35303 17.4163 5.35303 16.9056C5.35303 16.3661 5.80586 15.9325 6.34541 15.9518C6.86568 15.9711 7.27998 16.4046 7.27998 16.9153Z" fill="#8D8D8D"/>
<path d="M13.5427 15.9521C14.0823 15.9521 14.5158 16.405 14.5062 16.9349C14.4966 17.4552 14.063 17.8695 13.5427 17.8695C13.0032 17.8695 12.5696 17.4166 12.5793 16.8867C12.5985 16.3761 13.0321 15.9521 13.5427 15.9521Z" fill="#8D8D8D"/>
<path d="M18.167 16.8964C18.1766 17.4359 17.7334 17.8791 17.2035 17.8791C16.6832 17.8791 16.2593 17.4552 16.2497 16.9349C16.24 16.3953 16.6832 15.9521 17.2131 15.9521C17.7334 15.9618 18.1573 16.3857 18.167 16.8964Z" fill="#8D8D8D"/>
<path d="M9.93823 17.8791C9.41795 17.8791 8.99402 17.4648 8.97475 16.9445C8.95548 16.405 9.37941 15.9521 9.91896 15.9521C10.4392 15.9521 10.8632 16.3664 10.8824 16.8867C10.9017 17.4263 10.4778 17.8695 9.93823 17.8791Z" fill="#8D8D8D"/>
</svg>
