<svg width="26" height="28" viewBox="0 0 26 28" fill="none" xmlns="http://www.w3.org/2000/svg">
<path d="M11.4374 27.326H10.4024L10.3754 27.3191C9.62922 27.1413 9.04277 26.9262 8.52987 26.6428C8.09197 26.4011 7.67584 26.1329 7.29358 25.8451C7.24084 25.8058 7.22342 25.8058 7.21229 25.8058C7.07197 25.8353 6.96697 25.8475 6.85955 25.8475C6.59051 25.8475 6.33648 25.7734 6.10229 25.6928C4.59503 25.1736 3.33309 24.179 2.35229 22.7359C1.37874 21.3026 0.866805 19.6326 0.831482 17.772C0.795676 15.9025 0.795676 14.2109 0.831966 12.6013C0.876966 10.6007 1.5031 8.70224 2.69293 6.95805C2.83906 6.7434 3.03697 6.62551 3.25084 6.62551C3.36551 6.62551 3.48019 6.66137 3.5818 6.72866C3.72455 6.82346 3.81697 6.95756 3.84745 7.1167C3.88229 7.29696 3.8339 7.49049 3.70761 7.67616C2.86277 8.91738 2.33584 10.2834 2.14132 11.7348C2.10213 12.0251 2.07019 12.2864 2.06922 12.5413C2.06729 13.006 2.06342 13.4712 2.05906 13.9358C2.04745 15.2355 2.03535 16.5794 2.07793 17.8962C2.14568 19.9789 2.89132 21.7373 4.2931 23.1229C4.64342 23.4687 5.02084 23.7644 5.421 24.0071C5.17277 23.5606 5.02471 23.0493 4.97874 22.479C4.87277 21.1661 4.95455 20.1081 5.23664 19.1493C5.59955 17.9149 6.37906 16.8667 7.62019 15.9438C8.36342 15.3902 9.1768 14.9442 9.96309 14.5125C10.2965 14.3293 10.6299 14.1465 10.9584 13.9555C11.6145 13.5748 12.1318 13.2187 12.5847 12.8346C13.4363 12.1135 13.7644 11.1596 13.5892 9.91793C13.4886 9.20522 13.2563 8.50823 12.8774 7.78717C12.8774 7.78717 12.8068 7.66142 12.7894 7.62606C12.6094 7.25963 12.7062 6.89861 13.0299 6.7267C13.1228 6.67709 13.2191 6.65253 13.3158 6.65253C13.5418 6.65253 13.7402 6.78417 13.8742 7.02239C14.3402 7.85102 14.6465 8.7047 14.7854 9.56034C14.9218 10.4062 14.8923 11.1611 14.6934 11.8689C14.6208 12.1302 14.5279 12.4058 14.3479 12.6455C14.3136 12.6912 14.3116 12.6941 14.362 12.7781C15.1894 14.15 16.3657 14.819 17.9581 14.8239C18.2358 14.8244 18.4792 14.8386 18.6437 15.0071C18.8073 15.1746 18.8194 15.4305 18.8174 15.6785C18.815 15.9345 18.8165 16.1909 18.8179 16.4463C18.8223 17.2228 18.8266 18.0259 18.7245 18.8202C18.6679 19.2588 18.5823 19.6822 18.47 20.0801C18.381 20.3939 18.1516 20.5884 17.8705 20.5884C17.8202 20.5884 17.7689 20.582 17.7181 20.5698C17.5536 20.53 17.4191 20.4313 17.3383 20.2913C17.2487 20.137 17.2299 19.9415 17.286 19.7406C17.5836 18.6718 17.5831 17.5441 17.5826 16.4536L17.5831 16.0774C16.0536 15.9703 14.7887 15.3313 13.8229 14.1775C13.701 14.0321 13.5912 13.8759 13.4774 13.7123C12.7865 14.3376 12.005 14.8087 11.3852 15.1564L11.1558 15.2846C10.4852 15.6604 9.81455 16.0351 9.14971 16.4222C8.916 16.5578 8.69148 16.7046 8.46745 16.8707C8.48632 16.8687 8.63342 16.854 8.63342 16.854C8.69487 16.8481 8.75487 16.8333 8.81535 16.8191C8.86277 16.8083 8.91019 16.7965 8.95761 16.7881C9.00164 16.7803 9.04374 16.7773 9.08438 16.7773C9.38584 16.7773 9.63358 16.9709 9.70132 17.2587C9.78067 17.5951 9.57842 17.9198 9.23051 18.0136C9.05632 18.0603 8.88648 18.0927 8.72535 18.1104C8.45245 18.1399 8.20906 18.1536 7.98068 18.1536C7.7131 18.1536 7.46729 18.1345 7.23019 18.0952C7.21664 18.0942 7.20551 18.0937 7.19632 18.0937C7.16487 18.0937 7.15326 18.1021 7.12519 18.1399C6.66938 18.7534 6.38826 19.4179 6.28858 20.1149C6.15309 21.0659 6.13761 21.8351 6.24019 22.5375C6.32632 23.1264 6.55326 23.5807 6.93309 23.9251C7.80939 24.7213 8.60197 25.2812 9.42842 25.6879C9.93842 25.9394 10.4518 26.0666 10.9536 26.0666C11.5284 26.0666 12.1134 25.8991 12.6921 25.569C14.3973 24.596 15.7091 23.261 16.5912 21.6008C16.6183 21.5467 16.6299 21.5232 16.6429 21.5011C16.7736 21.283 16.9715 21.1587 17.1873 21.1587C17.2841 21.1587 17.3799 21.1833 17.4723 21.2314C17.782 21.3935 17.8933 21.7506 17.7384 22.0797C17.466 22.6573 17.1021 23.2281 16.6574 23.7762C16.4963 23.9752 16.4789 24.2153 16.4721 24.4899C16.6052 24.483 16.7252 24.4491 16.8476 24.4118C18.7739 23.8327 19.9071 22.5394 20.3131 20.4573C20.5342 19.3212 20.5821 18.1856 20.5995 17.2243C20.6097 16.683 20.6092 16.1422 20.6087 15.6009C20.6083 15.1888 20.6078 14.7772 20.6121 14.3651C20.6097 14.3268 20.601 14.316 20.5604 14.2944C19.5016 13.7226 18.4458 13.148 17.3891 12.5728L16.4595 12.0669C16.1997 11.9249 15.845 11.6931 15.7695 11.3144C15.695 10.9376 15.9292 10.5884 16.1126 10.359L16.3487 10.0623C16.8084 9.48568 17.2681 8.90903 17.7321 8.33582C17.5807 7.95368 17.587 7.58873 17.7621 7.2336C17.7994 7.15649 17.84 7.07986 17.8807 7.00274L17.9165 6.93447C17.9939 6.78711 18.0718 6.63878 18.0723 6.59604C18.0602 6.56019 17.9383 6.44132 17.8308 6.3367C15.9858 4.53749 13.7987 3.62536 11.3286 3.62536C11.2004 3.62536 11.0712 3.62781 10.941 3.63272C8.76164 3.71475 6.80439 4.52963 5.12245 6.05525L5.02084 6.15103C4.96761 6.20211 4.91439 6.2527 4.85874 6.30084C4.71842 6.42315 4.56019 6.48749 4.40197 6.48749C4.2389 6.48749 4.08358 6.41725 3.966 6.28905C3.71874 6.02086 3.74003 5.65542 4.01874 5.38036C4.5239 4.88132 5.07261 4.43827 5.6489 4.06349C7.38309 2.93524 9.27164 2.3635 11.2623 2.3635C11.4433 2.3635 11.6252 2.36792 11.8086 2.37725C14.5497 2.51724 16.927 3.61062 18.8731 5.62644C18.9858 5.74335 19.0308 5.78018 19.0894 5.78018C19.1078 5.78018 19.1291 5.77724 19.1537 5.77085C19.2079 5.75661 19.265 5.74973 19.3236 5.74973C19.5413 5.74973 19.7363 5.84748 19.9018 5.93884C20.0731 6.03364 20.2463 6.12696 20.4186 6.22078C20.7162 6.38189 21.0133 6.5425 21.3065 6.71147C21.9205 5.5395 22.5389 4.3695 23.1568 3.19999L24.2237 1.17876C24.3016 1.03092 24.4047 0.861458 24.576 0.726382L24.6418 0.674316H25.055L25.1184 0.720979C25.52 1.01618 25.5786 1.27798 25.3429 1.723L25.0739 2.23236C24.1836 3.92105 23.2933 5.60925 22.3957 7.29451C22.3947 7.29696 22.3933 7.29942 22.3918 7.30188C22.8258 7.52094 23.2516 7.75819 23.6774 7.99543L23.8139 8.07107C24.4976 8.45076 24.6979 9.12221 24.3365 9.82313C24.2116 10.0648 24.0834 10.306 23.9542 10.5457C23.7529 10.9199 23.4466 11.1425 23.0678 11.1896C23.0663 11.1891 23.0649 11.1886 23.0634 11.1886C23.0542 11.1886 23.0474 11.2014 23.0378 11.2338C22.8936 11.7117 22.7465 12.1877 22.5999 12.6641L22.2907 13.6686C22.2104 13.9319 22.1194 14.2286 21.8426 14.4329C21.8455 14.4732 21.8465 14.4943 21.8465 14.5149C21.8441 14.8686 21.845 15.2222 21.846 15.5759C21.8479 16.5199 21.8504 17.4954 21.7937 18.4587C21.726 19.6041 21.5876 20.9445 21.0718 22.2C20.3247 24.0174 18.8949 25.1982 16.822 25.7105C16.6758 25.7464 16.536 25.765 16.4068 25.765C16.0816 25.765 15.6665 25.6476 15.3912 25.1412C15.2305 25.2832 15.0718 25.4227 14.9092 25.5573C13.7963 26.4743 12.8392 26.994 11.8052 27.2415C11.7602 27.2523 11.7137 27.2572 11.6668 27.2617C11.6397 27.2641 11.5995 27.2681 11.5884 27.273L11.5212 27.3285L11.4374 27.326ZM20.3344 11.0933C20.3881 11.0933 20.4433 11.1007 20.4965 11.1154C20.825 11.2043 21.0045 11.5202 20.9329 11.8836C20.9174 11.9632 20.8947 12.0408 20.872 12.1184C20.8555 12.1734 20.8395 12.2285 20.8265 12.284C20.8037 12.3861 20.7607 12.4927 20.7171 12.5983C20.6755 12.6995 20.6054 12.8685 20.6329 12.9132C20.6804 12.9908 20.8381 13.0595 20.9774 13.12C21.0326 13.144 21.0878 13.1681 21.1405 13.1936C21.3805 12.4033 21.621 11.6125 21.8702 10.8247C20.7965 10.2416 19.7508 9.67184 18.7076 9.09863C18.1923 9.74945 17.6828 10.3885 17.1694 11.0241C17.3654 11.1258 17.5473 11.2245 17.7239 11.3286C17.9407 11.0629 18.1492 10.8163 18.3602 10.5712C18.5566 10.3428 18.7536 10.2947 18.8842 10.2947C19.0187 10.2947 19.1508 10.3453 19.2655 10.4405C19.3933 10.5471 19.4687 10.6881 19.4837 10.8482C19.5007 11.0314 19.4329 11.2264 19.2921 11.3969L19.2394 11.4612C19.1083 11.6209 18.9771 11.78 18.8426 11.9362C19.0536 12.0482 19.2558 12.1592 19.4658 12.2741L19.5239 12.3061L19.5321 12.2781C19.6013 12.034 19.6676 11.7982 19.7412 11.5649C19.8312 11.2785 20.0639 11.0933 20.3344 11.0933ZM18.9597 7.81074C20.136 8.45321 22.7862 9.89484 22.7862 9.89484C22.8099 9.9081 22.8336 9.9194 22.8563 9.92972C23.0068 9.67626 23.1254 9.44885 23.2497 9.22339C23.256 9.21259 23.2599 9.20374 23.2628 9.19687C23.257 9.19392 19.281 7.02878 19.2742 7.02583L19.0874 7.37113L18.9249 7.6796C18.9045 7.7184 18.892 7.7464 18.8837 7.76555C18.9002 7.77685 18.9249 7.79159 18.9597 7.81074Z" fill="#8D8D8D"/>
</svg>
